<?xml version="1.0" standalone="no"?>
<!DOCTYPE svg PUBLIC "-//W3C//DTD SVG 20010904//EN"
 "http://www.w3.org/TR/2001/REC-SVG-20010904/DTD/svg10.dtd">
<svg version="1.0" xmlns="http://www.w3.org/2000/svg"
 width="128.000000pt" height="128.000000pt" viewBox="0 0 128.000000 128.000000"
 preserveAspectRatio="xMidYMid meet">

<g transform="translate(0.000000,128.000000) scale(0.100000,-0.100000)"
fill="#000000" stroke="none">
<path d="M672 1183 c3 -15 15 -18 78 -18 63 0 75 3 78 18 3 15 -6 17 -78 17
-72 0 -81 -2 -78 -17z"/>
<path d="M597 1100 c-19 -22 -39 -33 -76 -40 -65 -12 -129 -43 -180 -86 -76
-66 -79 -60 86 -184 81 -61 154 -109 163 -108 13 3 16 33 20 195 3 109 9 196
15 202 6 6 53 11 105 13 76 2 95 6 95 18 0 12 -19 16 -101 18 l-102 3 -25 -31z
m-77 -110 c-17 -24 -20 -34 -10 -43 9 -9 17 -5 36 18 l24 30 0 -133 0 -132
-117 87 c-65 48 -120 88 -122 90 -9 6 35 46 77 70 41 24 123 54 131 47 2 -1
-7 -17 -19 -34z"/>
<path d="M71 1018 c-67 -36 -89 -126 -50 -205 21 -42 24 -63 24 -157 0 -76 4
-110 12 -113 8 -3 13 13 15 49 l3 53 38 3 37 3 0 -188 c0 -195 -3 -213 -42
-213 -29 0 -38 33 -38 139 0 83 -3 101 -15 101 -12 0 -15 -20 -15 -120 0 -107
2 -122 20 -140 26 -26 74 -26 101 1 21 21 22 27 17 279 -5 256 -4 258 19 297
51 85 12 203 -73 218 -16 3 -40 0 -53 -7z m84 -53 c34 -33 34 -104 0 -160 -16
-26 -25 -55 -25 -83 0 -36 -3 -43 -17 -40 -13 2 -20 17 -24 53 -3 28 -16 66
-28 85 -59 98 20 220 94 145z"/>
<path d="M1087 1023 c-4 -3 -7 -32 -7 -64 0 -32 -4 -61 -10 -64 -17 -11 -11
-48 14 -90 24 -39 25 -43 19 -212 -6 -155 -4 -173 10 -173 14 0 17 17 19 113
l3 112 35 0 35 0 3 -178 c3 -184 -3 -217 -37 -217 -27 0 -39 20 -43 69 -5 71
-28 64 -28 -8 0 -48 4 -65 20 -81 26 -26 74 -26 101 1 21 21 21 27 17 278 -4
253 -4 257 19 300 25 47 29 76 13 86 -5 3 -10 33 -10 65 0 58 -14 85 -31 59
-5 -8 -9 -35 -9 -61 0 -35 -4 -48 -15 -48 -10 0 -15 15 -17 58 -2 43 -7 57
-18 57 -11 0 -16 -14 -18 -57 -3 -50 -6 -58 -22 -58 -18 0 -20 7 -20 60 0 55
-6 70 -23 53z m153 -167 c0 -7 -10 -25 -21 -40 -12 -16 -24 -49 -28 -79 -8
-68 -34 -73 -41 -7 -3 25 -15 61 -28 81 -34 55 -30 59 48 59 52 0 70 -3 70
-14z"/>
<path d="M665 942 c-3 -3 -5 -171 -5 -374 l0 -368 33 0 c19 0 56 7 83 15 27 8
54 15 61 15 6 0 30 -34 53 -75 l41 -75 110 0 c100 0 110 2 107 17 -3 15 -17
18 -99 21 l-95 3 -38 65 -38 65 51 49 c33 32 64 74 84 117 28 60 32 78 31 153
0 64 -5 99 -22 141 -24 60 -94 149 -118 149 -22 0 -17 -19 16 -57 17 -18 42
-57 57 -86 24 -45 28 -63 28 -142 0 -71 -5 -100 -22 -137 -19 -43 -107 -148
-122 -148 -3 0 -17 16 -29 36 -17 27 -27 33 -35 25 -8 -8 -6 -20 6 -46 16 -33
16 -35 -2 -44 -10 -6 -37 -13 -60 -17 l-41 -7 0 336 0 337 33 -7 c17 -3 47
-12 66 -19 33 -14 51 -11 51 7 0 24 -166 70 -185 51z"/>
<path d="M268 733 c-30 -61 -33 -76 -33 -158 0 -80 3 -97 32 -158 20 -42 51
-85 84 -117 l51 -49 -38 -65 -38 -65 -95 -3 c-82 -3 -96 -6 -99 -20 -3 -16 7
-18 107 -18 l110 0 41 75 c23 41 47 75 53 75 7 0 34 -7 61 -15 27 -8 64 -15
83 -15 l33 0 0 85 c0 69 -3 85 -15 85 -12 0 -15 -14 -15 -66 l0 -67 -45 7
c-25 3 -55 10 -65 16 -19 10 -19 12 -3 45 12 25 14 38 6 46 -8 8 -18 1 -36
-26 l-25 -37 -46 42 c-91 84 -129 226 -91 342 31 97 24 98 172 -13 l132 -98 3
-67 c2 -43 8 -69 16 -72 9 -3 12 18 12 80 l0 84 -145 107 c-80 59 -152 107
-160 107 -7 0 -29 -30 -47 -67z"/>
<path d="M771 636 c-12 -14 -5 -26 16 -26 15 0 18 26 4 34 -5 3 -14 0 -20 -8z"/>
<path d="M834 598 c-68 -64 -81 -86 -59 -95 12 -4 35 12 76 53 32 32 59 64 59
71 0 29 -24 20 -76 -29z"/>
<path d="M880 515 c0 -8 7 -15 15 -15 8 0 15 7 15 15 0 8 -7 15 -15 15 -8 0
-15 -7 -15 -15z"/>
<path d="M132 173 c3 -15 16 -19 72 -21 66 -3 103 9 90 29 -3 5 -41 9 -85 9
-71 0 -80 -2 -77 -17z"/>
<path d="M986 181 c-13 -20 24 -32 90 -29 56 2 69 6 72 21 3 15 -6 17 -77 17
-44 0 -82 -4 -85 -9z"/>
</g>
</svg>
