<?xml version="1.0" standalone="no"?>
<!DOCTYPE svg PUBLIC "-//W3C//DTD SVG 20010904//EN"
 "http://www.w3.org/TR/2001/REC-SVG-20010904/DTD/svg10.dtd">
<svg version="1.0" xmlns="http://www.w3.org/2000/svg"
 width="128.000000pt" height="128.000000pt" viewBox="0 0 128.000000 128.000000"
 preserveAspectRatio="xMidYMid meet">

<g transform="translate(0.000000,128.000000) scale(0.100000,-0.100000)"
fill="#000000" stroke="none">
<path d="M614 1270 c-11 -4 -32 -22 -47 -39 -25 -30 -29 -31 -105 -31 -66 0
-82 3 -97 20 -37 41 -115 11 -115 -45 0 -32 33 -65 65 -65 15 0 36 11 49 25
21 22 31 25 100 25 l76 0 0 -55 c0 -46 4 -59 30 -88 40 -47 38 -57 -12 -57
-24 0 -55 -8 -70 -18 -44 -27 -248 -273 -248 -297 0 -12 8 -29 18 -38 36 -32
61 -21 154 70 l89 88 -3 -74 -3 -74 -109 -63 c-95 -55 -111 -61 -132 -52 -51
24 -101 -28 -82 -85 20 -56 97 -49 121 11 13 33 29 47 106 90 50 29 93 52 96
52 3 0 5 -43 5 -96 0 -86 2 -95 18 -92 15 3 17 18 20 110 3 107 3 107 32 125
40 23 40 48 0 40 l-30 -6 0 73 c0 81 -13 106 -47 87 -10 -5 -56 -48 -103 -95
-82 -83 -110 -102 -110 -72 0 8 51 72 113 143 l112 128 50 3 c57 4 75 15 75
48 0 20 5 24 29 24 23 0 30 -5 34 -27 3 -16 0 -34 -5 -41 -20 -24 6 -36 40
-18 56 29 81 21 139 -40 36 -39 57 -55 68 -50 15 5 14 9 -4 34 -11 16 -40 47
-65 70 l-44 41 45 27 c33 19 48 23 56 15 17 -17 51 -13 75 9 44 41 16 110 -43
110 -35 0 -65 -28 -65 -61 0 -16 -125 -99 -149 -99 -20 0 -11 31 16 54 23 20
27 33 31 88 3 43 -1 76 -11 101 -26 61 -101 92 -163 67z m97 -43 c27 -21 39
-54 39 -111 0 -72 -14 -86 -89 -86 -31 0 -62 5 -69 12 -7 7 -12 36 -12 64 0
46 3 53 22 56 30 4 34 25 7 33 l-23 8 23 18 c26 21 78 24 102 6z m-371 -47 c0
-24 -26 -38 -42 -22 -16 16 -2 42 22 42 13 0 20 -7 20 -20z m638 -124 c-2 -13
-10 -21 -23 -21 -23 0 -33 34 -14 45 20 13 40 -1 37 -24z m-721 -602 c3 -8 -2
-23 -11 -32 -14 -15 -18 -15 -31 -1 -9 9 -13 23 -9 32 8 21 43 22 51 1z"/>
<path d="M797 813 c-4 -3 -7 -80 -7 -170 l0 -163 -25 0 c-16 0 -25 -6 -25 -15
0 -9 9 -15 25 -15 l25 0 2 -187 3 -188 35 -17 35 -17 -56 -1 -55 0 -22 222
c-13 122 -27 227 -33 235 -19 22 -68 16 -78 -9 -4 -13 -15 -111 -25 -218 -10
-107 -20 -203 -22 -212 -4 -15 -16 -18 -62 -17 l-57 0 37 15 c44 19 48 31 48
155 0 73 -4 100 -15 109 -21 17 -24 4 -27 -120 -3 -101 -4 -104 -27 -110 -13
-3 -30 -15 -37 -26 -12 -17 -11 -23 2 -42 13 -19 24 -22 83 -22 45 0 72 5 79
13 7 7 21 110 32 228 31 315 35 316 65 9 13 -134 27 -225 35 -234 16 -20 140
-22 158 -4 25 25 14 58 -23 74 l-35 14 0 175 0 175 73 0 c65 0 76 -3 97 -25
14 -15 35 -25 50 -25 57 0 84 76 40 112 -31 25 -65 22 -88 -7 -18 -23 -27 -25
-96 -25 l-76 0 0 142 0 143 88 -88 c88 -87 112 -100 144 -74 33 25 30 52 -10
103 -54 69 -70 81 -78 60 -4 -11 8 -34 35 -66 40 -47 45 -70 18 -70 -7 0 -55
43 -107 95 -90 91 -108 103 -123 88z m278 -348 c0 -22 -31 -33 -47 -17 -17 17
-1 44 24 40 15 -2 23 -10 23 -23z"/>
</g>
</svg>
