<?xml version="1.0" standalone="no"?>
<!DOCTYPE svg PUBLIC "-//W3C//DTD SVG 20010904//EN"
 "http://www.w3.org/TR/2001/REC-SVG-20010904/DTD/svg10.dtd">
<svg version="1.0" xmlns="http://www.w3.org/2000/svg"
 width="128.000000pt" height="128.000000pt" viewBox="0 0 128.000000 128.000000"
 preserveAspectRatio="xMidYMid meet">

<g transform="translate(0.000000,128.000000) scale(0.100000,-0.100000)"
fill="#000000" stroke="none">
<path d="M509 1265 c-70 -17 -169 -64 -176 -82 -10 -27 8 -26 74 5 87 40 140
51 233 52 142 0 269 -51 365 -148 57 -56 109 -150 121 -215 6 -37 6 -38 -14
-26 -27 17 -52 62 -52 93 0 30 -19 34 -56 10 -59 -39 -238 8 -327 85 l-37 33
-37 -33 c-89 -77 -268 -124 -327 -85 -37 24 -56 20 -56 -10 0 -31 -25 -76 -52
-93 -20 -12 -20 -11 -14 26 11 59 49 133 100 196 41 49 45 58 30 64 -26 10
-96 -75 -136 -164 -18 -40 -39 -73 -46 -73 -26 0 -71 -34 -88 -65 -24 -45 -12
-96 30 -132 26 -22 35 -38 40 -76 10 -66 30 -111 72 -156 l35 -40 -34 -48
c-67 -93 -117 -218 -117 -291 0 -24 8 -42 29 -63 l30 -29 473 2 c413 3 473 5
473 18 0 13 -60 15 -469 18 -326 1 -473 6 -483 13 -40 34 22 226 105 327 l27
33 62 -28 c46 -20 65 -35 72 -54 15 -44 70 -97 129 -126 50 -24 69 -27 152
-27 83 0 102 3 152 27 59 29 114 82 129 126 7 19 26 34 72 54 l62 28 27 -33
c82 -100 145 -293 105 -326 -6 -6 -28 -12 -47 -14 -50 -4 -48 -32 3 -36 50 -4
97 40 97 90 0 73 -50 198 -117 291 l-34 48 35 40 c42 45 62 90 72 156 5 38 14
54 40 76 42 36 54 87 30 132 -17 31 -62 65 -88 65 -7 0 -30 35 -50 78 -20 42
-53 96 -72 119 -49 56 -157 126 -236 153 -83 28 -232 36 -311 15z m152 -261
c18 -22 115 -69 183 -89 56 -16 129 -17 166 -1 12 5 19 -3 29 -30 8 -23 29
-47 57 -67 54 -38 68 -76 62 -168 -14 -192 -178 -282 -518 -282 -340 0 -504
90 -518 282 -6 92 8 130 62 168 28 20 49 44 57 67 10 27 17 35 29 30 37 -16
110 -15 166 1 68 20 165 67 183 89 8 9 17 16 21 16 4 0 13 -7 21 -16z m-551
-174 c0 -16 -4 -39 -9 -52 -5 -13 -12 -32 -16 -43 -6 -19 -7 -19 -26 4 -25 31
-24 69 3 98 30 32 48 29 48 -7z m1107 8 c28 -26 30 -67 4 -99 -19 -23 -20 -23
-26 -4 -4 11 -11 30 -16 43 -13 32 -11 82 3 82 6 0 22 -10 35 -22z m-771 -519
c53 -56 99 -74 194 -74 95 0 130 13 192 72 46 45 67 40 34 -7 -36 -54 -115
-92 -200 -98 -84 -5 -135 7 -196 46 -48 31 -93 92 -67 92 7 0 26 -14 43 -31z
m344 6 c0 -18 -91 -45 -150 -45 -59 0 -150 27 -150 45 0 3 68 5 150 5 83 0
150 -2 150 -5z"/>
<path d="M380 795 c0 -29 3 -36 18 -33 11 2 17 13 17 33 0 20 -6 31 -17 33
-15 3 -18 -4 -18 -33z"/>
<path d="M864 816 c-9 -24 0 -51 19 -54 14 -3 17 4 17 32 0 26 -4 36 -15 36
-9 0 -18 -6 -21 -14z"/>
<path d="M554 753 c2 -56 19 -82 30 -46 5 14 16 18 56 18 40 0 51 -4 56 -18
12 -36 28 -10 29 46 1 63 -12 74 -39 32 -11 -17 -26 -25 -46 -25 -20 0 -35 8
-46 25 -28 43 -42 32 -40 -32z"/>
</g>
</svg>
