<?xml version="1.0" standalone="no"?>
<!DOCTYPE svg PUBLIC "-//W3C//DTD SVG 20010904//EN"
 "http://www.w3.org/TR/2001/REC-SVG-20010904/DTD/svg10.dtd">
<svg version="1.0" xmlns="http://www.w3.org/2000/svg"
 width="128.000000pt" height="128.000000pt" viewBox="0 0 128.000000 128.000000"
 preserveAspectRatio="xMidYMid meet">

<g transform="translate(0.000000,128.000000) scale(0.100000,-0.100000)"
fill="#000000" stroke="none">
<path d="M958 1216 c-51 -18 -117 -70 -157 -122 -96 -125 -105 -322 -20 -418
l30 -35 -30 -66 c-27 -59 -32 -65 -49 -56 -23 12 -32 32 -32 73 0 23 -41 90
-166 272 -176 256 -209 296 -250 296 -61 0 -114 -59 -100 -113 3 -12 48 -84
100 -160 52 -75 97 -140 99 -144 3 -5 -24 -9 -59 -9 -171 -4 -307 -145 -307
-319 0 -170 126 -304 296 -313 84 -5 147 12 202 54 l43 32 5 -41 c13 -100 136
-132 199 -53 22 27 23 99 2 131 -30 46 4 26 40 -24 29 -39 35 -55 30 -79 -5
-23 -1 -33 17 -46 34 -23 60 -20 106 14 34 25 45 29 66 21 29 -11 94 3 116 24
12 12 10 20 -14 55 -15 22 -26 42 -24 44 2 2 25 13 52 24 26 12 47 27 47 34 0
6 -16 28 -35 48 l-36 37 41 27 c22 14 40 33 40 41 0 8 -19 29 -42 45 l-42 31
-130 -7 c-124 -7 -129 -6 -122 12 5 10 13 31 18 47 9 25 14 27 61 27 180 1
349 237 308 430 -26 123 -97 192 -204 197 -36 2 -78 -3 -99 -11z m174 -39 c72
-44 103 -109 102 -212 -1 -91 -31 -169 -91 -235 -58 -65 -126 -100 -192 -100
-85 0 -134 29 -174 105 -33 60 -30 189 5 267 73 158 240 242 350 175z m-814
-64 c41 -36 352 -500 352 -526 0 -14 4 -37 10 -51 5 -15 6 -26 1 -26 -5 0 -16
-3 -24 -6 -11 -4 -18 5 -27 30 -14 44 -76 126 -95 126 -8 0 -15 -8 -15 -18 0
-24 -85 -106 -100 -97 -19 12 -40 71 -40 115 l0 41 35 -7 c40 -7 46 5 16 37
-33 35 -221 319 -221 333 0 24 41 66 65 66 12 0 32 -8 43 -17z m32 -451 c0
-32 9 -66 26 -101 l27 -53 -34 -34 -34 -34 -99 99 -98 98 38 24 c39 24 112 47
152 48 20 1 22 -4 22 -47z m510 -51 c12 -8 10 -17 -10 -60 -16 -34 -30 -51
-42 -51 -23 0 -23 10 3 71 23 52 25 54 49 40z m-584 -230 l-34 -34 -53 27
c-35 17 -69 26 -101 26 -39 0 -48 3 -48 18 1 38 23 110 47 151 l25 43 99 -98
99 -99 -34 -34z m320 154 c13 -27 24 -56 24 -62 0 -18 -62 -16 -107 2 -68 29
-69 33 -17 86 55 56 63 54 100 -26z m-30 -102 l56 -6 -5 -54 c-5 -50 -48 -143
-65 -143 -4 0 -50 43 -102 95 l-94 95 33 34 34 35 43 -25 c26 -15 66 -28 100
-31z m154 45 c0 -7 -8 -50 -17 -95 -13 -66 -21 -83 -34 -83 -25 0 -27 7 -20
90 5 66 9 76 31 87 32 16 40 16 40 1z m427 -10 l35 -21 -38 -24 c-38 -24 -43
-24 -179 -18 -77 4 -143 9 -147 12 -12 7 -9 41 3 49 10 6 155 19 248 23 29 1
55 -6 78 -21z m-367 -8 c0 -47 -34 -170 -47 -170 -17 0 -16 8 3 108 11 54 21
82 30 82 8 0 14 -9 14 -20z m-353 -162 c51 -51 93 -96 93 -100 0 -17 -93 -60
-143 -65 l-54 -5 -6 56 c-3 34 -16 74 -31 100 l-25 43 32 31 c17 18 34 32 37
32 2 0 46 -42 97 -92z m540 76 l131 -6 34 -35 c37 -38 34 -44 -33 -64 -32 -10
-48 -7 -164 35 -71 26 -132 49 -136 52 -14 9 3 35 20 30 9 -3 75 -8 148 -12z
m-803 -18 c53 -22 53 -34 3 -84 -38 -38 -48 -43 -61 -33 -17 14 -56 94 -56
116 0 20 68 20 114 1z m769 -83 c108 -39 133 -52 155 -80 27 -37 21 -51 -23
-54 -34 -2 -39 -1 -163 67 -105 56 -122 69 -122 90 0 13 6 24 13 24 6 0 70
-21 140 -47z m-662 -27 c10 -22 19 -58 19 -79 0 -36 -1 -37 -27 -31 -35 9 -83
32 -106 52 -17 15 -15 18 29 63 26 27 52 45 57 42 5 -3 18 -24 28 -47z m379
30 c0 -2 -7 -6 -15 -10 -8 -3 -15 -1 -15 4 0 6 7 10 15 10 8 0 15 -2 15 -4z
m77 -58 c30 -28 31 -83 1 -115 -47 -50 -138 -12 -138 57 0 68 87 105 137 58z
m157 -49 c-4 -6 -11 -6 -20 2 -21 17 -17 31 6 19 11 -6 18 -15 14 -21z m52
-55 c-30 -26 -43 -29 -66 -14 -13 9 -13 11 0 19 8 6 24 16 35 24 15 11 25 13
39 5 19 -10 19 -12 -8 -34z"/>
<path d="M995 1161 c-50 -12 -89 -37 -129 -82 -121 -133 -111 -341 18 -400 54
-25 91 -24 151 5 122 56 199 218 166 344 -15 56 -72 119 -119 132 -41 11 -44
11 -87 1z m59 -27 c17 -7 22 -34 6 -34 -5 0 -20 5 -34 11 -40 19 -14 39 28 23z
m-106 -49 c-12 -27 -16 -29 -37 -16 -10 7 -8 12 10 25 33 23 40 20 27 -9z
m187 5 c23 -25 15 -33 -19 -21 -26 10 -32 21 -19 34 10 11 19 8 38 -13z m-111
-11 c22 -10 24 -15 14 -33 -6 -12 -12 -22 -13 -24 -4 -5 -55 21 -55 29 0 15
12 39 21 39 4 0 19 -5 33 -11z m-105 -45 c2 -2 -1 -15 -7 -29 -11 -23 -15 -24
-34 -14 -32 16 -31 15 -16 38 11 19 39 21 57 5z m195 3 c27 -20 13 -60 -17
-51 -32 9 -40 20 -32 43 7 24 23 27 49 8z m-104 -53 c0 -3 -5 -14 -10 -25 -10
-18 -13 -18 -41 -4 -16 9 -28 19 -26 23 2 4 7 15 10 25 6 16 9 17 37 2 16 -8
30 -18 30 -21z m170 -10 c0 -26 -1 -27 -24 -18 -12 5 -13 10 -4 30 13 28 28
22 28 -12z m-302 -38 c-3 -23 -25 -31 -47 -17 -9 6 -11 18 -7 35 6 23 8 24 32
14 17 -8 24 -18 22 -32z m219 6 c-2 -4 -7 -15 -10 -24 -5 -15 -11 -16 -37 -7
-32 12 -36 20 -20 50 10 18 13 18 41 4 16 -9 28 -19 26 -23z m-152 -14 c26
-12 30 -24 16 -47 -8 -12 -14 -12 -39 -2 -28 12 -30 15 -20 37 13 28 10 27 43
12z m214 -7 c9 -6 11 -18 7 -35 -6 -23 -9 -24 -31 -14 -26 12 -29 17 -19 42 7
18 22 20 43 7z m-124 -33 c26 -12 29 -17 19 -42 -7 -18 -27 -20 -54 -6 -17 9
-18 14 -8 35 13 29 10 28 43 13z m-196 -7 c10 -7 11 -13 2 -30 -17 -30 -31
-26 -31 9 0 31 6 36 29 21z m76 -33 c29 -13 30 -17 12 -42 -12 -16 -17 -17
-38 -6 -33 17 -32 16 -19 39 13 25 12 24 45 9z m225 -23 c0 -23 -27 -37 -49
-26 -17 10 -19 15 -9 35 9 21 14 23 34 14 13 -6 24 -17 24 -23z m-137 -16 c30
-16 30 -15 17 -38 -20 -38 -75 -15 -64 27 7 25 16 27 47 11z m-119 -42 c19
-14 13 -47 -9 -47 -15 0 -47 45 -38 54 10 10 28 7 47 -7z m195 4 c12 -8 12
-12 2 -25 -26 -31 -49 -18 -35 18 7 18 13 19 33 7z m-104 -44 c24 -18 11 -37
-24 -37 -35 0 -43 8 -30 31 12 22 28 24 54 6z"/>
<path d="M245 1070 c-4 -6 -3 -16 3 -22 6 -6 12 -6 17 2 4 6 3 16 -3 22 -6 6
-12 6 -17 -2z"/>
<path d="M275 1029 c-8 -12 100 -179 115 -179 6 0 10 4 10 10 0 10 -108 180
-114 180 -3 0 -8 -5 -11 -11z"/>
</g>
</svg>
